<svg width="49" height="49" viewBox="0 0 49 49" fill="none" xmlns="http://www.w3.org/2000/svg">
  <style>
    .g1 {
      fill: #09090B;
    }

    @media (prefers-color-scheme:dark) {
      .g1 {
        fill: #fff;
      }
    }
  </style>
  <g clip-path="url(#clip0_204_54625)" class="g1">
    <path
      d="M22.4622 39.2312C21.865 39.2312 21.2727 39.0769 20.7491 38.7853C19.9289 38.3284 19.3342 37.5769 19.0757 36.6692C18.8172 35.7608 18.9263 34.809 19.3826 33.9889C19.8364 33.173 20.6137 32.5605 21.5153 32.3082C21.5404 32.3008 21.5655 32.2941 21.59 32.2861C21.6151 32.2806 21.6409 32.2751 21.666 32.269C21.9275 32.2077 22.197 32.1771 22.4665 32.1771C22.5474 32.1771 22.6294 32.1801 22.7109 32.1857C22.7973 32.1918 22.8836 32.1948 22.97 32.1948C24.0792 32.1948 25.1352 31.6926 25.8353 30.8204C26.5899 29.8808 26.8355 28.6307 26.4931 27.4749C26.4539 27.3426 26.4196 27.2073 26.392 27.0725C26.147 25.8941 25.3404 24.9104 24.233 24.4388C23.7717 24.2421 23.2817 24.1454 22.7942 24.1454C22.1113 24.1454 21.432 24.3352 20.8379 24.7095C20.5286 24.9043 20.1935 25.0525 19.8419 25.1511C19.8162 25.1584 19.7905 25.1658 19.7648 25.1738C19.7384 25.1793 19.7127 25.1854 19.6864 25.1915C19.4052 25.2571 19.1167 25.2907 18.8276 25.2907C18.1888 25.2907 17.5549 25.126 16.9944 24.8136C16.1137 24.3236 15.4767 23.5194 15.201 22.5504C14.9248 21.5808 15.043 20.5622 15.533 19.6815C16.1228 18.6218 17.1947 17.9064 18.4001 17.768C19.4591 17.6461 20.4134 17.0698 21.0143 16.1896C21.6151 15.3088 21.8044 14.2112 21.5324 13.1798C21.3469 12.4766 21.4363 11.768 21.7915 11.1304C22.2797 10.2533 23.207 9.70813 24.2115 9.70813C24.6801 9.70813 25.1456 9.82941 25.5566 10.0579C26.89 10.8002 27.3714 12.4895 26.6291 13.8235C26.2554 14.4948 25.6123 14.9842 24.8644 15.1667C23.8293 15.4197 22.9553 16.1094 22.4683 17.0563C21.9814 18.0038 21.9293 19.1161 22.3262 20.1047C22.3642 20.2003 22.3991 20.2983 22.4298 20.3969C22.7875 21.5465 23.6854 22.4481 24.8338 22.8101C25.1958 22.924 25.5688 22.9804 25.9388 22.9804C26.7424 22.9804 27.5349 22.717 28.1873 22.2123C29.0429 21.5508 30.1081 21.1864 31.1867 21.1864C32.0148 21.1864 32.8374 21.4001 33.5644 21.805C34.7067 22.4408 35.533 23.4839 35.8913 24.7413C36.2496 25.9988 36.0965 27.3206 35.4607 28.4635C34.5971 30.015 32.9568 30.9784 31.1799 30.9784C30.8743 30.9784 30.5656 30.949 30.2624 30.8902C30.0315 30.8455 29.7987 30.8241 29.5678 30.8241C28.6154 30.8241 27.6887 31.1946 26.9953 31.8745C26.1335 32.7191 25.7415 33.9319 25.9455 35.1208C26.0815 35.9127 25.9443 36.7077 25.548 37.4195C24.9257 38.5367 23.7442 39.2312 22.4647 39.2312H22.4622Z" />
    <path
      d="M29.645 36.2906C30.6598 36.2906 31.4825 35.468 31.4825 34.4531C31.4825 33.4383 30.6598 32.6156 29.645 32.6156C28.6302 32.6156 27.8075 33.4383 27.8075 34.4531C27.8075 35.468 28.6302 36.2906 29.645 36.2906Z" />
    <path
      d="M22.4481 31.0844C23.9535 31.0844 25.1738 29.8641 25.1738 28.3587C25.1738 26.8534 23.9535 25.6331 22.4481 25.6331C20.9428 25.6331 19.7225 26.8534 19.7225 28.3587C19.7225 29.8641 20.9428 31.0844 22.4481 31.0844Z" />
    <path
      d="M37.8831 39.2919C39.9297 39.2919 41.5888 37.6328 41.5888 35.5863C41.5888 33.5397 39.9297 31.8806 37.8831 31.8806C35.8366 31.8806 34.1775 33.5397 34.1775 35.5863C34.1775 37.6328 35.8366 39.2919 37.8831 39.2919Z" />
    <path
      d="M11.4231 39.2919C9.21078 39.2919 7.41125 37.4924 7.41125 35.28C7.41125 33.0677 9.21078 31.2681 11.4231 31.2681C11.7667 31.2681 12.1073 31.3116 12.4362 31.3974C12.5385 31.4243 12.6426 31.4372 12.7455 31.4372C13.1014 31.4372 13.4456 31.2822 13.6814 31.0023C13.9858 30.6422 14.0563 30.1387 13.8621 29.7087C13.7267 29.4092 13.6581 29.0889 13.6581 28.7569C13.6581 27.4737 14.7025 26.4294 15.9856 26.4294C17.2688 26.4294 18.3131 27.4737 18.3131 28.7569C18.3131 30.0401 17.2688 31.0844 15.9856 31.0844C15.9293 31.0844 15.8717 31.0825 15.8148 31.0783C15.7854 31.0758 15.756 31.0752 15.7266 31.0752C15.2886 31.0752 14.8813 31.3098 14.6626 31.6938C14.4293 32.1036 14.4519 32.6113 14.7208 32.9991C15.1876 33.6716 15.4344 34.4605 15.4344 35.28C15.4344 37.4924 13.6349 39.2919 11.4225 39.2919H11.4231Z" />
    <path
      d="M26.7356 20.9169C28.0718 20.9169 29.155 19.8337 29.155 18.4975C29.155 17.1613 28.0718 16.0781 26.7356 16.0781C25.3994 16.0781 24.3163 17.1613 24.3163 18.4975C24.3163 19.8337 25.3994 20.9169 26.7356 20.9169Z" />
  </g>
  <defs>
    <clipPath id="clip0_204_54625">
      <rect width="49" height="49" fill="white" />
    </clipPath>
  </defs>
</svg>